<svg xmlns="http://www.w3.org/2000/svg" width="858" height="200" viewBox="-30.00 -135.00 858.16 200.04"><g transform="translate(-54.824,-138.664) scale(0.96183)"><g transform="translate(-3,3)"><circle cx="78" cy="158" r="5" fill="#E11D6B"/><circle cx="68" cy="142" r="8" fill="#E11D6B"/><circle cx="92" cy="132" r="6" fill="none" stroke="#E11D6B" stroke-width="2.5"/><circle cx="86" cy="110" r="12" fill="#E11D6B"/><circle cx="112" cy="120" r="5" fill="#FF5C8A"/><circle cx="108" cy="84" r="16" fill="#E11D6B"/><circle cx="134" cy="96" r="6" fill="#FF5C8A"/><circle cx="100" cy="66" r="6" fill="none" stroke="#E11D6B" stroke-width="2.5"/><circle cx="130" cy="52" r="20" fill="#E11D6B"/></g></g><g transform="translate(129.405,0)"><path d="M226.27484130859375 -14Q173.62481689453125 -14 131.71231079101562 4.32501220703125Q89.7998046875 22.6500244140625 65.38729858398438 57.887542724609375Q40.97479248046875 93.12506103515625 40.97479248046875 143.60009765625Q40.97479248046875 194.2501220703125 65.38729858398438 228.31265258789062Q89.7998046875 262.37518310546875 132.86233520507812 279.6127014160156Q175.92486572265625 296.8502197265625 230.87493896484375 296.8502197265625H374.22442626953125V326.77508544921875Q374.22442626953125 365.97479248046875 350.12457275390625 390.3121643066406Q326.02471923828125 414.6495361328125 275.0499267578125 414.6495361328125Q225.07513427734375 414.6495361328125 199.53781127929688 391.399658203125Q174.00048828125 368.1497802734375 165.9505615234375 330.82501220703125L60.099853515625 365.97528076171875Q72.099853515625 404.8502197265625 98.51235961914062 436.87518310546875Q124.92486572265625 468.900146484375 169.16238403320312 488.57513427734375Q213.39990234375 508.2501220703125 276.699951171875 508.2501220703125Q373.6500244140625 508.2501220703125 429.5126037597656 459.42510986328125Q485.37518310546875 410.60009765625 485.37518310546875 318.82501220703125V124.900634765625Q485.37518310546875 94.900634765625 513.3751831054688 94.900634765625H554.60009765625V0H474.099853515625Q438.1497802734375 0 415.19970703125 18.087493896484375Q392.2496337890625 36.17498779296875 392.2496337890625 66.52496337890625V68.57489013671875H374.82452392578125Q369.2496337890625 54.82501220703125 354.1122131347656 35.062530517578125Q338.97479248046875 15.300048828125 308.4498291015625 0.6500244140625Q277.92486572265625 -14 226.27484130859375 -14ZM245.12506103515625 79.6005859375Q302.32476806640625 79.6005859375 338.27459716796875 112.07537841796875Q374.22442626953125 144.5501708984375 374.22442626953125 199.8497314453125V210.19970703125H238.47503662109375Q200.500244140625 210.19970703125 177.96292114257812 193.88729858398438Q155.42559814453125 177.57489013671875 155.42559814453125 147.07513427734375Q155.42559814453125 116.57537841796875 178.96292114257812 98.08798217773438Q202.500244140625 79.6005859375 245.12506103515625 79.6005859375Z" fill="#EDE9F2" transform="translate(0.000,0) scale(0.120000,-0.120000)"/><path d="M49.1497802734375 245.12506103515625V260.42510986328125Q49.1497802734375 338.2501220703125 80.23727416992188 393.6626281738281Q111.32476806640625 449.07513427734375 163.08724975585938 478.6626281738281Q214.8497314453125 508.2501220703125 276.5496826171875 508.2501220703125Q346.6495361328125 508.2501220703125 383.3119201660156 482.9377136230469Q419.97430419921875 457.62530517578125 436.8492431640625 429.17547607421875H453.79931640625V494.2501220703125H565.900146484375V-94.299560546875Q565.900146484375 -142.67474365234375 537.8250122070312 -171.33737182617188Q509.7498779296875 -200 461.67474365234375 -200H129.67474365234375V-99.79931640625H423.27435302734375Q451.79931640625 -99.79931640625 451.79931640625 -69.79931640625V73.19970703125H434.8492431640625Q424.32427978515625 55.7998046875 405.3618469238281 38.162384033203125Q386.3994140625 20.52496337890625 355.17449951171875 8.912506103515625Q323.9495849609375 -2.699951171875 276.5496826171875 -2.699951171875Q214.8497314453125 -2.699951171875 162.999755859375 26.887542724609375Q111.1497802734375 56.47503662109375 80.1497802734375 111.97503662109375Q49.1497802734375 167.47503662109375 49.1497802734375 245.12506103515625ZM308.699951171875 97.500732421875Q371.07464599609375 97.500732421875 412.2619934082031 137.12554931640625Q453.4493408203125 176.7503662109375 453.4493408203125 247.9500732421875V257.60009765625Q453.4493408203125 329.7998046875 412.67449951171875 368.92462158203125Q371.899658203125 408.0494384765625 308.699951171875 408.0494384765625Q246.500244140625 408.0494384765625 205.22540283203125 368.92462158203125Q163.9505615234375 329.7998046875 163.9505615234375 257.60009765625V247.9500732421875Q163.9505615234375 176.7503662109375 205.22540283203125 137.12554931640625Q246.500244140625 97.500732421875 308.699951171875 97.500732421875Z" fill="#EDE9F2" transform="translate(69.240,0) scale(0.120000,-0.120000)"/><path d="M298.7998046875 -14Q224.62481689453125 -14 168.2998046875 17.5Q111.97479248046875 49 80.56228637695312 106.41250610351562Q49.1497802734375 163.82501220703125 49.1497802734375 241.12506103515625V253.12506103515625Q49.1497802734375 330.60009765625 80.1497802734375 387.92510986328125Q111.1497802734375 445.2501220703125 166.88729858398438 476.7501220703125Q222.62481689453125 508.2501220703125 295.92486572265625 508.2501220703125Q368.0499267578125 508.2501220703125 421.7874450683594 476.4500732421875Q475.52496337890625 444.6500244140625 505.52496337890625 387.8499755859375Q535.5249633789062 331.0499267578125 535.5249633789062 255.39990234375V214.32476806640625H165.2506103515625Q167.42559814453125 156.32525634765625 206.31289672851562 121.26296997070312Q245.2001953125 86.20068359375 302.099853515625 86.20068359375Q357.72467041015625 86.20068359375 384.9120178222656 110.6005859375Q412.099365234375 135.00048828125 426.32427978515625 165.97528076171875L520.7498779296875 117.22491455078125Q506.57489013671875 90 480.07489013671875 59.32501220703125Q453.57489013671875 28.6500244140625 409.92486572265625 7.32501220703125Q366.27484130859375 -14 298.7998046875 -14ZM166.2506103515625 300.97528076171875H419.2491455078125Q415.2491455078125 350.27484130859375 381.8618469238281 379.1621398925781Q348.47454833984375 408.0494384765625 295.099853515625 408.0494384765625Q240.2501220703125 408.0494384765625 207.100341796875 379.1621398925781Q173.9505615234375 350.27484130859375 166.2506103515625 300.97528076171875Z" fill="#EDE9F2" transform="translate(145.920,0) scale(0.120000,-0.120000)"/><path d="M73.1497802734375 0V494.2501220703125H185.6005859375V424.87542724609375H202.5506591796875Q215.6005859375 453.1502685546875 250.00048828125 477.87518310546875Q284.400390625 502.60009765625 353.32525634765625 502.60009765625Q410.4503173828125 502.60009765625 454.0378112792969 476.8875427246094Q497.62530517578125 451.17498779296875 522.0627746582031 405.02496337890625Q546.500244140625 358.87493896484375 546.500244140625 296V0H432.0494384765625V287.0499267578125Q432.0494384765625 347.2496337890625 402.3620910644531 376.47454833984375Q372.67474365234375 405.699462890625 318.87493896484375 405.699462890625Q257.900146484375 405.699462890625 222.7503662109375 365.27459716796875Q187.6005859375 324.8497314453125 187.6005859375 250.42510986328125V0Z" fill="#EDE9F2" transform="translate(215.640,0) scale(0.120000,-0.120000)"/><path d="M260.699951171875 0Q213.4498291015625 0 184.87469482421875 28.662628173828125Q156.299560546875 57.32525634765625 156.299560546875 105.700439453125V398.99951171875H26.699951171875V494.2501220703125H156.299560546875V653.1497802734375H270.7503662109375V494.2501220703125H412.699951171875V398.99951171875H270.7503662109375V125.2506103515625Q270.7503662109375 95.2506103515625 299.100341796875 95.2506103515625H398.2501220703125V0Z" fill="#EDE9F2" transform="translate(289.440,0) scale(0.120000,-0.120000)"/><path d="M73.1497802734375 0V494.2501220703125H187.6005859375V0ZM130.37518310546875 556.7998046875Q98.47503662109375 556.7998046875 76.46243286132812 577.5748901367188Q54.4498291015625 598.3499755859375 54.4498291015625 631.900146484375Q54.4498291015625 665.6253051757812 76.46243286132812 686.3128967285156Q98.47503662109375 707.00048828125 130.37518310546875 707.00048828125Q163.27532958984375 707.00048828125 184.78793334960938 686.3128967285156Q206.300537109375 665.6253051757812 206.300537109375 631.900146484375Q206.300537109375 598.3499755859375 184.78793334960938 577.5748901367188Q163.27532958984375 556.7998046875 130.37518310546875 556.7998046875Z" fill="#EDE9F2" transform="translate(344.280,0) scale(0.120000,-0.120000)"/><path d="M304.22491455078125 -14Q232.39990234375 -14 174.42486572265625 16.087493896484375Q116.4498291015625 46.17498779296875 82.7998046875 103.17498779296875Q49.1497802734375 160.17498779296875 49.1497802734375 240.47503662109375V253.77508544921875Q49.1497802734375 334.2501220703125 82.7998046875 391.1626281738281Q116.4498291015625 448.07513427734375 174.42486572265625 478.1626281738281Q232.39990234375 508.2501220703125 304.22491455078125 508.2501220703125Q375.0499267578125 508.2501220703125 425.6124572753906 482.9876403808594Q476.17498779296875 457.72515869140625 506.97503662109375 414.400146484375Q537.7750854492188 371.07513427734375 547.2501220703125 317.47503662109375L436.27435302734375 293.92486572265625Q432.099365234375 325.499755859375 417.0494384765625 350.9871520996094Q401.99951171875 376.47454833984375 374.6621398925781 391.4369812011719Q347.32476806640625 406.3994140625 306.699951171875 406.3994140625Q266.07513427734375 406.3994140625 233.56277465820312 388.49951171875Q201.0504150390625 370.599609375 182.32550048828125 335.999755859375Q163.6005859375 301.39990234375 163.6005859375 251.9500732421875V242.300048828125Q163.6005859375 192.8502197265625 182.32550048828125 158.2503662109375Q201.0504150390625 123.6505126953125 233.56277465820312 105.7506103515625Q266.07513427734375 87.8507080078125 306.699951171875 87.8507080078125Q367.72467041015625 87.8507080078125 399.4120178222656 119.4505615234375Q431.099365234375 151.0504150390625 439.4493408203125 201.1502685546875L550.4251098632812 175.12506103515625Q538.1250610351562 123.17498779296875 507.1500244140625 79.8499755859375Q476.17498779296875 36.52496337890625 425.6124572753906 11.262481689453125Q375.0499267578125 -14 304.22491455078125 -14Z" fill="#EDE9F2" transform="translate(375.600,0) scale(0.120000,-0.120000)"/><path d="M19.7498779296875 0 211.62432861328125 700H421.32574462890625L613.2001953125 0H489.27435302734375L447.42462158203125 159.599609375H185.52545166015625L143.67572021484375 0ZM214.2506103515625 270.400390625H418.699462890625L324.9500732421875 624.8744506835938H308Z" fill="#E11D6B" transform="translate(446.280,0) scale(0.120000,-0.120000)"/><path d="M46.3499755859375 0V105.8507080078125H139.7498779296875V594.1492919921875H46.3499755859375V700H330.500244140625Q470.80029296875 700 544.8252563476562 628.8499755859375Q618.8502197265625 557.699951171875 618.8502197265625 415.6500244140625V284.17498779296875Q618.8502197265625 142.12506103515625 544.8252563476562 71.06253051757812Q470.80029296875 0 330.500244140625 0ZM259.8507080078125 109.1507568359375H332.1502685546875Q417.39990234375 109.1507568359375 458.07464599609375 153.07562255859375Q498.7493896484375 197.00048828125 498.7493896484375 280.3499755859375V419.47503662109375Q498.7493896484375 503.82452392578125 458.07464599609375 547.2493896484375Q417.39990234375 590.6742553710938 332.1502685546875 590.6742553710938H259.8507080078125Z" fill="#E11D6B" transform="translate(522.240,0) scale(0.120000,-0.120000)"/><path d="M69.499755859375 0V700H514.7750854492188V590.8492431640625H189.6005859375V407.22540283203125H486.77508544921875V298.07464599609375H189.6005859375V109.1507568359375H520.4251098632812V0Z" fill="#E11D6B" transform="translate(602.040,0) scale(0.120000,-0.120000)"/><circle cx="359.93" cy="-75.83" r="10.75" fill="#FF5C8A"/></g></svg>